<svg xmlns="http://www.w3.org/2000/svg" viewBox="0 0 500 500" width="500" height="500">
<defs>
  <radialGradient id="bg" cx="50%" cy="50%" r="50%">
    <stop offset="0%" stop-color="#10103a"/>
    <stop offset="60%" stop-color="#080818"/>
    <stop offset="100%" stop-color="#04040e"/>
  </radialGradient>
  <radialGradient id="glow" cx="50%" cy="50%" r="50%">
    <stop offset="0%" stop-color="#f8e89a" stop-opacity="0.38"/>
    <stop offset="45%" stop-color="#d4a843" stop-opacity="0.1"/>
    <stop offset="100%" stop-color="#d4a843" stop-opacity="0"/>
  </radialGradient>
  <radialGradient id="cg" cx="50%" cy="50%" r="50%">
    <stop offset="0%" stop-color="#fff9e0"/>
    <stop offset="40%" stop-color="#f0d06a" stop-opacity="0.9"/>
    <stop offset="75%" stop-color="#c49040" stop-opacity="0.6"/>
    <stop offset="100%" stop-color="#c49040" stop-opacity="0"/>
  </radialGradient>
  <radialGradient id="ag" cx="50%" cy="45%" r="55%">
    <stop offset="0%" stop-color="#fff8dc"/>
    <stop offset="100%" stop-color="#c49040"/>
  </radialGradient>
</defs>

<circle cx="250" cy="250" r="250" fill="url(#bg)"/>
<circle cx="250" cy="250" r="244" fill="none" stroke="#d4a843" stroke-width="0.8" stroke-opacity="0.35"/>
<circle cx="250" cy="250" r="240" fill="none" stroke="#d4a843" stroke-width="0.3" stroke-opacity="0.18"/>

<g opacity="0.14" stroke="#f8e89a" stroke-width="0.6">
  <line x1="250" y1="6" x2="250" y2="250"/>
  <line x1="250" y1="6" x2="250" y2="250" transform="rotate(15,250,250)"/>
  <line x1="250" y1="6" x2="250" y2="250" transform="rotate(30,250,250)"/>
  <line x1="250" y1="6" x2="250" y2="250" transform="rotate(45,250,250)"/>
  <line x1="250" y1="6" x2="250" y2="250" transform="rotate(60,250,250)"/>
  <line x1="250" y1="6" x2="250" y2="250" transform="rotate(75,250,250)"/>
  <line x1="250" y1="6" x2="250" y2="250" transform="rotate(90,250,250)"/>
  <line x1="250" y1="6" x2="250" y2="250" transform="rotate(105,250,250)"/>
  <line x1="250" y1="6" x2="250" y2="250" transform="rotate(120,250,250)"/>
  <line x1="250" y1="6" x2="250" y2="250" transform="rotate(135,250,250)"/>
  <line x1="250" y1="6" x2="250" y2="250" transform="rotate(150,250,250)"/>
  <line x1="250" y1="6" x2="250" y2="250" transform="rotate(165,250,250)"/>
  <line x1="250" y1="6" x2="250" y2="250" transform="rotate(180,250,250)"/>
  <line x1="250" y1="6" x2="250" y2="250" transform="rotate(195,250,250)"/>
  <line x1="250" y1="6" x2="250" y2="250" transform="rotate(210,250,250)"/>
  <line x1="250" y1="6" x2="250" y2="250" transform="rotate(225,250,250)"/>
  <line x1="250" y1="6" x2="250" y2="250" transform="rotate(240,250,250)"/>
  <line x1="250" y1="6" x2="250" y2="250" transform="rotate(255,250,250)"/>
  <line x1="250" y1="6" x2="250" y2="250" transform="rotate(270,250,250)"/>
  <line x1="250" y1="6" x2="250" y2="250" transform="rotate(285,250,250)"/>
  <line x1="250" y1="6" x2="250" y2="250" transform="rotate(300,250,250)"/>
  <line x1="250" y1="6" x2="250" y2="250" transform="rotate(315,250,250)"/>
  <line x1="250" y1="6" x2="250" y2="250" transform="rotate(330,250,250)"/>
  <line x1="250" y1="6" x2="250" y2="250" transform="rotate(345,250,250)"/>
</g>

<g opacity="0.4">
  <polygon points="244,8 256,8 255,250 245,250" fill="#d4a843"/>
  <polygon points="244,8 256,8 255,250 245,250" fill="#d4a843" transform="rotate(45,250,250)"/>
  <polygon points="244,8 256,8 255,250 245,250" fill="#d4a843" transform="rotate(90,250,250)"/>
  <polygon points="244,8 256,8 255,250 245,250" fill="#d4a843" transform="rotate(135,250,250)"/>
  <polygon points="246,8 254,8 253,250 247,250" fill="#c49040" transform="rotate(22.5,250,250)" opacity="0.55"/>
  <polygon points="246,8 254,8 253,250 247,250" fill="#c49040" transform="rotate(67.5,250,250)" opacity="0.55"/>
  <polygon points="246,8 254,8 253,250 247,250" fill="#c49040" transform="rotate(112.5,250,250)" opacity="0.55"/>
  <polygon points="246,8 254,8 253,250 247,250" fill="#c49040" transform="rotate(157.5,250,250)" opacity="0.55"/>
</g>

<circle cx="250" cy="250" r="205" fill="url(#glow)"/>
<circle cx="250" cy="250" r="192" fill="none" stroke="#d4a843" stroke-width="0.7" stroke-opacity="0.28"/>
<circle cx="250" cy="250" r="170" fill="none" stroke="#d4a843" stroke-width="0.4" stroke-opacity="0.18"/>

<g fill="#d4a843" opacity="0.78">
  <circle cx="250" cy="86"  r="5"/>
  <circle cx="322" cy="118" r="4"/>
  <circle cx="178" cy="118" r="4"/>
  <circle cx="338" cy="185" r="4"/>
  <circle cx="162" cy="185" r="4"/>
  <circle cx="338" cy="315" r="4"/>
  <circle cx="162" cy="315" r="4"/>
  <circle cx="250" cy="355" r="4"/>
  <circle cx="250" cy="414" r="5"/>
</g>

<g stroke="#9b78c8" stroke-width="0.8" opacity="0.2" fill="none">
  <line x1="250" y1="86"  x2="322" y2="118"/>
  <line x1="250" y1="86"  x2="178" y2="118"/>
  <line x1="250" y1="86"  x2="250" y2="250"/>
  <line x1="322" y1="118" x2="178" y2="118"/>
  <line x1="322" y1="118" x2="338" y2="185"/>
  <line x1="322" y1="118" x2="250" y2="250"/>
  <line x1="178" y1="118" x2="162" y2="185"/>
  <line x1="178" y1="118" x2="250" y2="250"/>
  <line x1="338" y1="185" x2="162" y2="185"/>
  <line x1="338" y1="185" x2="250" y2="250"/>
  <line x1="162" y1="185" x2="250" y2="250"/>
  <line x1="338" y1="185" x2="338" y2="315"/>
  <line x1="162" y1="185" x2="162" y2="315"/>
  <line x1="250" y1="250" x2="338" y2="315"/>
  <line x1="250" y1="250" x2="162" y2="315"/>
  <line x1="250" y1="250" x2="250" y2="355"/>
  <line x1="250" y1="250" x2="250" y2="414"/>
  <line x1="338" y1="315" x2="162" y2="315"/>
  <line x1="338" y1="315" x2="250" y2="355"/>
  <line x1="162" y1="315" x2="250" y2="355"/>
  <line x1="250" y1="355" x2="250" y2="414"/>
</g>

<polygon points="250,100 328,238 172,238"
  fill="none" stroke="#d4a843" stroke-width="1.7" stroke-opacity="0.74" stroke-linejoin="round"/>
<polygon points="250,400 172,262 328,262"
  fill="none" stroke="#d4a843" stroke-width="1.7" stroke-opacity="0.74" stroke-linejoin="round"/>
<polygon points="250,155 300,238 300,262 250,345 200,262 200,238"
  fill="#d4a843" fill-opacity="0.055"/>

<g fill="#f8e89a" opacity="0.88">
  <circle cx="250" cy="100" r="4"/>
  <circle cx="328" cy="238" r="4"/>
  <circle cx="328" cy="262" r="4"/>
  <circle cx="250" cy="400" r="4"/>
  <circle cx="172" cy="262" r="4"/>
  <circle cx="172" cy="238" r="4"/>
</g>

<circle cx="250" cy="250" r="84" fill="#060612" stroke="#d4a843" stroke-width="1.6" stroke-opacity="0.58"/>
<circle cx="250" cy="250" r="78" fill="none" stroke="#d4a843" stroke-width="0.5" stroke-opacity="0.28"/>
<circle cx="250" cy="250" r="66" fill="url(#cg)" opacity="0.62"/>
<circle cx="250" cy="250" r="42" fill="none" stroke="#d4a843" stroke-width="0.7" stroke-opacity="0.32" stroke-dasharray="4,6"/>

<text x="250" y="288"
  font-family="Frank Ruhl Libre, Noto Serif Hebrew, David, serif"
  font-size="100" font-weight="300"
  text-anchor="middle"
  fill="url(#ag)"
  opacity="0.98">א</text>

<text x="250" y="322"
  font-family="Frank Ruhl Libre, Noto Serif Hebrew, serif"
  font-size="15" font-weight="300"
  text-anchor="middle"
  fill="#d4a843"
  letter-spacing="9"
  opacity="0.42">אוֹר</text>

<circle cx="250" cy="250" r="246" fill="none" stroke="#d4a843" stroke-width="2" stroke-opacity="0.1"/>
</svg>
